STARTFONT 2.1
FONT misc.ding
SIZE 18 72 72
FONTBOUNDINGBOX 26 18 0 -3
STARTPROPERTIES 4
FONT_DESCENT 3
FONT_ASCENT 15
DEFAULT_CHAR 5
COPYRIGHT "Copyright (c) 1992 AT&T - All rights reserved."
ENDPROPERTIES
CHARS 68
STARTCHAR ch-5
ENCODING 5
SWIDTH 833 0
DWIDTH 15 0
BBX 14 18 0 -3
BITMAP
00000000
00000000
03000000
03000000
03000000
07800000
fffc0000
7ff80000
3ff00000
0fc00000
0fc00000
0fc00000
1ce00000
18600000
10200000
00000000
00000000
00000000
ENDCHAR
STARTCHAR ch-6
ENCODING 6
SWIDTH 833 0
DWIDTH 15 0
BBX 14 18 0 -3
BITMAP
00000010
00000008
02000000
0200001a
03000012
05000004
05000000
fcfc0000
40180020
30200018
18400020
1040003b
1340001c
1de00034
3060001c
20200000
00000030
00000018
ENDCHAR
STARTCHAR ch-9
ENCODING 9
SWIDTH 833 0
DWIDTH 15 0
BBX 14 18 0 -3
BITMAP
00000010
07800008
18600000
2010001a
40080012
c0080004
80040000
83040000
83040020
80040018
80040020
4008003b
6018001c
30300034
1fe0001c
03000000
00000030
00000018
ENDCHAR
STARTCHAR ch-12
ENCODING 12
SWIDTH 500 0
DWIDTH 9 0
BBX 8 18 0 -3
BITMAP
00000010
00000008
00000000
0100001a
03000012
02000004
02000000
04000000
3c000020
46000018
83000020
8100003b
8100001c
81000034
c200001c
7e000000
00000030
00000018
ENDCHAR
STARTCHAR ch-13
ENCODING 13
SWIDTH 666 0
DWIDTH 12 0
BBX 11 18 0 -3
BITMAP
00000010
00000008
03800000
0440001a
08200012
08200004
08200000
08200000
04600020
07800018
1c000020
3600003b
4100001c
41000034
c100001c
41000000
63000030
3e000018
ENDCHAR
STARTCHAR ch-14
ENCODING 14
SWIDTH 833 0
DWIDTH 15 0
BBX 14 18 0 -3
BITMAP
00000010
00000008
00000000
0000001a
00000012
7ff80004
fffc0000
fcfc0000
efdc0020
1c600018
18600020
1860003b
3cf0001c
3ff00034
1fe0001c
00000000
00000030
00000018
ENDCHAR
STARTCHAR ch-15
ENCODING 15
SWIDTH 888 0
DWIDTH 16 0
BBX 15 18 0 -3
BITMAP
00000010
00000008
00000000
0000001a
00000012
0ff00004
700c0000
8fe20000
93920020
f44e0018
0c400020
1bb0003b
26c8001c
20080034
3ff8001c
00000000
00000030
00000018
ENDCHAR
STARTCHAR ch-16
ENCODING 16
SWIDTH 1000 0
DWIDTH 18 0
BBX 17 18 0 -3
BITMAP
7fff0010
ffff8008
c0008000
c000801a
c0008012
c0008004
c0008000
c0008000
c0008020
c0008018
c0008020
c000803b
c000801c
c0008034
c000801c
c0008000
ffff8030
00000018
ENDCHAR
STARTCHAR ch-17
ENCODING 17
SWIDTH 1000 0
DWIDTH 18 0
BBX 17 18 0 -3
BITMAP
7fff0010
ffff8008
80018000
8005801a
800d8012
80198004
80118000
80318000
80618020
98418018
88c18020
8d81803b
8701801c
87018034
8001801c
80018000
ffff8030
00000018
ENDCHAR
STARTCHAR ch-18
ENCODING 18
SWIDTH 1000 0
DWIDTH 18 0
BBX 17 18 0 -3
BITMAP
7fff0010
ffff8008
c0018000
d001801a
c8098012
c4118004
c2218000
c3418000
c1c18020
c1c18018
c3618020
c631803b
cc19801c
d80d8034
c001801c
c0018000
ffff8030
00000018
ENDCHAR
STARTCHAR ch-28
ENCODING 28
SWIDTH 888 0
DWIDTH 16 0
BBX 16 18 0 -3
BITMAP
00000010
00000008
00000000
0000001a
00000012
7f800004
803f0000
fc050000
20050020
1e050018
10050020
0f05003b
09ff001c
00000034
0000001c
00000000
00000030
00000018
ENDCHAR
STARTCHAR ch-30
ENCODING 30
SWIDTH 888 0
DWIDTH 16 0
BBX 16 18 0 -3
BITMAP
00000010
00000008
00000000
0000001a
00000012
01fe0004
ec010000
a03f0000
a0080020
a0780018
a0080020
a0f0003b
ffe0001c
00000034
0000001c
00000000
00000030
00000018
ENDCHAR
STARTCHAR ch-48
ENCODING 48
SWIDTH 777 0
DWIDTH 14 0
BBX 14 18 0 -3
BITMAP
00000010
00000008
00000000
0000001a
00000012
7ff80004
7ff80000
00000000
00000020
7ff80018
7ff80020
0000003b
0000001c
7ff80034
7ff8001c
00000000
00000030
00000018
ENDCHAR
STARTCHAR ch-49
ENCODING 49
SWIDTH 777 0
DWIDTH 14 0
BBX 14 18 0 -3
BITMAP
00000010
00000008
00000000
0000001a
00000012
7cf80004
7cf80000
00000000
00000020
7ff80018
7ff80020
0000003b
0000001c
7ff80034
7ff8001c
00000000
00000030
00000018
ENDCHAR
STARTCHAR ch-50
ENCODING 50
SWIDTH 777 0
DWIDTH 14 0
BBX 14 18 0 -3
BITMAP
00000010
00000008
00000000
0000001a
00000012
7ff80004
7ff80000
00000000
00000020
7cf80018
7cf80020
0000003b
0000001c
7ff80034
7ff8001c
00000000
00000030
00000018
ENDCHAR
STARTCHAR ch-51
ENCODING 51
SWIDTH 777 0
DWIDTH 14 0
BBX 14 18 0 -3
BITMAP
00000010
00000008
00000000
0000001a
00000012
7cf80004
7cf80000
00000000
00000020
7cf80018
7cf80020
0000003b
0000001c
7ff80034
7ff8001c
00000000
00000030
00000018
ENDCHAR
STARTCHAR ch-52
ENCODING 52
SWIDTH 777 0
DWIDTH 14 0
BBX 14 18 0 -3
BITMAP
00000010
00000008
00000000
0000001a
00000012
7ff80004
7ff80000
00000000
00000020
7ff80018
7ff80020
0000003b
0000001c
7cf80034
7cf8001c
00000000
00000030
00000018
ENDCHAR
STARTCHAR ch-53
ENCODING 53
SWIDTH 777 0
DWIDTH 14 0
BBX 14 18 0 -3
BITMAP
00000010
00000008
00000000
0000001a
00000012
7cf80004
7cf80000
00000000
00000020
7ff80018
7ff80020
0000003b
0000001c
7cf80034
7cf8001c
00000000
00000030
00000018
ENDCHAR
STARTCHAR ch-54
ENCODING 54
SWIDTH 777 0
DWIDTH 14 0
BBX 14 18 0 -3
BITMAP
00000010
00000008
00000000
0000001a
00000012
7ff80004
7ff80000
00000000
00000020
7cf80018
7cf80020
0000003b
0000001c
7cf80034
7cf8001c
00000000
00000030
00000018
ENDCHAR
STARTCHAR ch-55
ENCODING 55
SWIDTH 777 0
DWIDTH 14 0
BBX 14 18 0 -3
BITMAP
00000010
00000008
00000000
0000001a
00000012
7cf80004
7cf80000
00000000
00000020
7cf80018
7cf80020
0000003b
0000001c
7cf80034
7cf8001c
00000000
00000030
00000018
ENDCHAR
STARTCHAR ch-57
ENCODING 57
SWIDTH 833 0
DWIDTH 15 0
BBX 14 18 0 -3
BITMAP
00000010
00000008
0fc00000
3030001a
20100012
40080004
84840000
88440000
80040020
80040018
87c40020
0c60003b
4828001c
20100034
1020001c
07c00000
00000030
00000018
ENDCHAR
STARTCHAR ch-58
ENCODING 58
SWIDTH 833 0
DWIDTH 15 0
BBX 14 18 0 -3
BITMAP
00000010
00000008
0fc00000
3030001a
20100012
40080004
84840000
84840000
80040020
a0140018
b0340020
1860003b
4fc8001c
23100034
1020001c
07c00000
00000030
00000018
ENDCHAR
STARTCHAR ch-59
ENCODING 59
SWIDTH 833 0
DWIDTH 15 0
BBX 14 18 0 -3
BITMAP
00000010
00000008
0fc00000
3ff0001a
3ff00012
7ff80004
fb7c0000
fb7c0000
fffc0020
fffc0018
efec0020
67c8003b
7398001c
38300034
1fe0001c
07c00000
00000030
00000018
ENDCHAR
STARTCHAR ch-64
ENCODING 64
SWIDTH 500 0
DWIDTH 9 0
BBX 8 18 0 -3
BITMAP
00000010
00000008
00000010
3c00002c
42000000
81000001
81000034
81000010
81000020
42000018
7e000020
1800003b
1800001c
18000034
7e000000
18000000
18000000
0000003c
ENDCHAR
STARTCHAR ch-65
ENCODING 65
SWIDTH 500 0
DWIDTH 9 0
BBX 8 18 0 -3
BITMAP
00000010
00000008
18000010
1800002c
7e000000
18000001
1800001c
18000010
3c000020
42000018
81000020
8100003b
8100001c
81000034
42000000
3c000000
00000000
0000003c
ENDCHAR
STARTCHAR ch-66
ENCODING 66
SWIDTH 611 0
DWIDTH 11 0
BBX 10 18 0 -3
BITMAP
00000010
00000008
01000010
0f80002c
03800000
02400001
02000004
04000010
3c000020
42000018
81000020
8100003b
8100001c
81000034
43000000
7e000000
00000000
0000003c
ENDCHAR
STARTCHAR ch-67
ENCODING 67
SWIDTH 722 0
DWIDTH 13 0
BBX 12 18 0 -3
BITMAP
00000010
00000008
78100000
dc30001a
8c600012
04400004
04400000
04400000
0c400020
08400018
08400020
1040003b
3040001c
3ff00034
0040001c
00400000
00000030
00000018
ENDCHAR
STARTCHAR ch-68
ENCODING 68
SWIDTH 611 0
DWIDTH 11 0
BBX 10 18 0 -3
BITMAP
00000010
00000008
f8000000
2000001a
20000012
20000004
27000000
29800000
30c00020
30c00018
20800020
2180003b
2300001c
02000034
0200001c
03800000
00000030
00000018
ENDCHAR
STARTCHAR ch-69
ENCODING 69
SWIDTH 888 0
DWIDTH 16 0
BBX 15 18 0 -3
BITMAP
00000010
f83e0008
60080000
6108001a
61080012
61080004
61080000
7ff80000
61080020
61080018
61080020
6108003b
6108001c
f11c0034
0380001c
02800000
03800030
00000018
ENDCHAR
STARTCHAR ch-70
ENCODING 70
SWIDTH 888 0
DWIDTH 16 0
BBX 15 18 0 -3
BITMAP
00000010
41040008
e38e0000
4104001a
41040012
41040004
41040000
21080000
21080020
31180018
19300020
0fe0003b
0100001c
01000034
1ff0001c
01000000
01000030
00000018
ENDCHAR
STARTCHAR ch-71
ENCODING 71
SWIDTH 555 0
DWIDTH 10 0
BBX 9 18 0 -3
BITMAP
00000010
00000008
7e000000
c180001a
c0800012
c0800004
c0800000
c0800000
c3800020
fe000018
c0000020
c000003b
c000001c
ff000034
0000001c
00000000
00000030
00000018
ENDCHAR
STARTCHAR ch-72
ENCODING 72
SWIDTH 888 0
DWIDTH 16 0
BBX 15 18 0 -3
BITMAP
00000010
00000008
00000000
783c001a
fc6c0012
c4460004
46c40000
668c0000
02800020
02800018
03800020
0380003b
0300001c
01000034
0100001c
01000000
00000030
00000018
ENDCHAR
STARTCHAR ch-73
ENCODING 73
SWIDTH 777 0
DWIDTH 14 0
BBX 13 18 0 -3
BITMAP
00000010
00000008
00000000
8008001a
80080012
80080004
c0180000
60300000
70700020
3fc00018
0f800020
18c0003b
1040001c
30600034
18c0001c
0f800000
00000030
00000018
ENDCHAR
STARTCHAR ch-74
ENCODING 74
SWIDTH 777 0
DWIDTH 14 0
BBX 13 18 0 -3
BITMAP
00000010
00000008
00000000
c018001a
70700012
1fc00004
18c00000
18c00000
18c00020
18c00018
18c00020
18c0003b
18c0001c
1fc00034
7070001c
c0180000
00000030
00000018
ENDCHAR
STARTCHAR ch-75
ENCODING 75
SWIDTH 777 0
DWIDTH 14 0
BBX 13 18 0 -3
BITMAP
00000010
00000008
0f000000
3fe0001a
78700012
7c180004
c6080000
c6080000
46080020
3df00018
83100020
8318003b
8318001c
41f00034
70f0001c
1fe00000
03000030
00000018
ENDCHAR
STARTCHAR ch-76
ENCODING 76
SWIDTH 722 0
DWIDTH 13 0
BBX 12 18 0 -3
BITMAP
00000010
0f000008
31c00000
6040001a
40600012
c0600004
40600000
60600000
30600020
7c600018
c6600020
c360003b
c360001c
c6600034
7e60001c
00600000
00600030
00300018
ENDCHAR
STARTCHAR ch-77
ENCODING 77
SWIDTH 888 0
DWIDTH 16 0
BBX 14 18 0 -3
BITMAP
00000010
22100008
fff80000
cccc001a
cccc0012
cccc0004
cccc0000
cccc0000
cccc0020
cccc0018
cccc0020
cccc003b
cce8001c
88f00034
00c0001c
00c00000
00c00030
00000018
ENDCHAR
STARTCHAR ch-78
ENCODING 78
SWIDTH 833 0
DWIDTH 15 0
BBX 14 18 0 -3
BITMAP
00000010
00000008
00000000
0000001a
00000012
03800004
47c40000
44440000
4c640020
7c7c0018
01000020
0100003b
7ffc001c
fffc0034
0000001c
00000000
00000030
00000018
ENDCHAR
STARTCHAR ch-79
ENCODING 79
SWIDTH 944 0
DWIDTH 17 0
BBX 15 18 0 -3
BITMAP
00000010
21000008
7f800000
ccc0001a
ccc00012
ccc00004
ccc00000
ccc00000
ccc00020
ccc00018
ccc00020
ccc0003b
cccc001c
80ce0034
00ce001c
00f20000
00e00030
00400018
ENDCHAR
STARTCHAR ch-80
ENCODING 80
SWIDTH 777 0
DWIDTH 14 0
BBX 13 18 0 -3
BITMAP
00000010
30000008
38000000
6800001a
4c000012
44000004
c6200000
86100000
fff80020
fff80018
86300020
c620003b
4c00001c
4c000034
6800001c
30000000
20000030
00000018
ENDCHAR
STARTCHAR ch-81
ENCODING 81
SWIDTH 777 0
DWIDTH 14 0
BBX 13 18 0 -3
BITMAP
00000010
60000008
e0780000
20d8001a
20480012
23f80004
27700000
26300000
2c100020
38180018
38180020
3030003b
3030001c
20600034
03c0001c
01000000
00000030
00000018
ENDCHAR
STARTCHAR ch-82
ENCODING 82
SWIDTH 777 0
DWIDTH 14 0
BBX 13 18 0 -3
BITMAP
00000010
00000008
00000000
0000001a
00000012
e7380004
39c80000
31880000
00000020
00000018
e7380020
39c8003b
3188001c
00000034
0000001c
00000000
00000030
00000018
ENDCHAR
STARTCHAR ch-83
ENCODING 83
SWIDTH 777 0
DWIDTH 14 0
BBX 13 18 0 -3
BITMAP
00000010
00000008
00000000
c018001a
c0180012
60300004
20200000
30600000
30600020
3fe00018
30600020
3060003b
2020001c
60300034
c018001c
c0180000
00000030
00000018
ENDCHAR
STARTCHAR ch-84
ENCODING 84
SWIDTH 1277 0
DWIDTH 23 0
BBX 23 18 0 -3
BITMAP
007c0010
006c0008
0754e000
1defb01a
30fe1812
20440804
20280800
20280800
30281820
18fe3018
0fffe020
0701c03b
0638c01c
0600c034
067cc01c
03838000
03838030
007c0018
ENDCHAR
STARTCHAR ch-85
ENCODING 85
SWIDTH 1222 0
DWIDTH 22 0
BBX 22 18 0 -3
BITMAP
01c70010
01450008
01c70010
0082002c
00c60000
396d3801
2939283c
3f29f810
0d296020
05bb4018
07ffc020
0701c03b
0638c01c
0600c034
067cc000
03838000
03838000
007c003c
ENDCHAR
STARTCHAR ch-86
ENCODING 86
SWIDTH 1000 0
DWIDTH 18 0
BBX 18 18 0 -3
BITMAP
00000010
1ce70008
17bd0010
1803002c
08020000
0ffe0001
04040024
04040010
04040020
04040018
04040020
0404003b
0ffe001c
18020034
18030000
30018000
30018000
3fff803c
ENDCHAR
STARTCHAR ch-87
ENCODING 87
SWIDTH 1277 0
DWIDTH 23 0
BBX 23 18 0 -3
BITMAP
006c0010
006c0008
00f60010
009a002c
018d0000
01070001
0303000c
02038010
02018020
02018018
03030020
01ff003b
0183001c
01930034
01ff0000
1feff000
3ffff800
30ee183c
ENDCHAR
STARTCHAR ch-88
ENCODING 88
SWIDTH 1222 0
DWIDTH 22 0
BBX 22 18 0 -3
BITMAP
02400010
03780008
038e0010
0203002c
06018000
0400c001
05804034
0c006010
08002020
18102018
20f03020
33b0103b
1e60101c
00c01034
01801000
01001000
01001000
00ffe03c
ENDCHAR
STARTCHAR ch-89
ENCODING 89
SWIDTH 944 0
DWIDTH 17 0
BBX 17 18 0 -3
BITMAP
00000010
01c00008
03600000
0220001a
07f00012
0c180004
180c0000
1ffc0000
01400020
01400018
02200020
0220003b
0220001c
02200034
0770001c
0e380000
180c0030
3ffe0018
ENDCHAR
STARTCHAR ch-90
ENCODING 90
SWIDTH 1222 0
DWIDTH 22 0
BBX 22 18 0 -3
BITMAP
00fc0010
00cc0008
00cc0000
1fcfe01a
30fc3012
6e79d804
4f33c800
6fb7d800
2600d020
30fe3018
1fffe020
0fcfc03b
05cec01c
07ff8034
0601801c
06798000
03ff8030
01fe0018
ENDCHAR
STARTCHAR ch-91
ENCODING 91
SWIDTH 1277 0
DWIDTH 23 0
BBX 23 18 0 -3
BITMAP
01860010
01c70008
01c70000
01c6001a
21ce1012
31ce3804
31fe3000
1fffe000
1fffe020
0fffc018
0c00c020
07ffc03b
07ff801c
07ff8034
0600801c
06fe8000
07ff8030
01fe0018
ENDCHAR
STARTCHAR ch-92
ENCODING 92
SWIDTH 1055 0
DWIDTH 19 0
BBX 19 18 0 -3
BITMAP
1ce70010
1fff0008
1fff0000
1fff001a
0ffe0012
0c060004
07fc0000
07fc0000
07fc0020
07fc0018
07fc0020
07fc003b
0c06001c
1fff0034
1fff001c
3fff8000
3fff8030
3fff8018
ENDCHAR
STARTCHAR ch-93
ENCODING 93
SWIDTH 1333 0
DWIDTH 24 0
BBX 24 18 0 -3
BITMAP
006c0010
006c0008
00fe0000
00fa001a
01ff0012
01fd0004
03ff8000
03ff8000
03ff8020
03ff8018
03ff8020
0101003b
01ff001c
01ff0034
0101001c
1ffff000
3ffff830
38ee1818
ENDCHAR
STARTCHAR ch-94
ENCODING 94
SWIDTH 1277 0
DWIDTH 23 0
BBX 23 18 0 -3
BITMAP
02400010
03780008
03ce0000
03f3001a
03fd8012
07fec004
067e4000
0fff6000
0fffa020
1fffa018
3fffb020
3fbf903b
1e7fd01c
00ffd034
01ffd01c
01ffd000
01ffd030
01fff018
ENDCHAR
STARTCHAR ch-95
ENCODING 95
SWIDTH 888 0
DWIDTH 16 0
BBX 16 18 0 -3
BITMAP
00000010
03800008
07c00000
07c0001a
0fe00012
1ff00004
3ff80000
3ff80000
03800020
07c00018
07c00020
07c0003b
07c0001c
07c00034
07c0001c
1ff00000
3ff80030
7ffc0018
ENDCHAR
STARTCHAR ch-96
ENCODING 96
SWIDTH 777 0
DWIDTH 14 0
BBX 13 18 0 -3
BITMAP
00000010
02000008
07000000
0700001a
0f800012
1fc00004
3fe00000
3fe00000
7ff00020
fff80018
fff80020
faf8003b
faf8001c
72700034
0700001c
02000000
00000030
00000018
ENDCHAR
STARTCHAR ch-97
ENCODING 97
SWIDTH 777 0
DWIDTH 14 0
BBX 13 18 0 -3
BITMAP
00000010
00000008
30600000
4890001a
85080012
87080004
80080000
c0180000
40100020
60300018
30600020
1040003b
0880001c
0d800034
0700001c
02000000
00000030
00000018
ENDCHAR
STARTCHAR ch-98
ENCODING 98
SWIDTH 666 0
DWIDTH 12 0
BBX 11 18 0 -3
BITMAP
00000010
00000008
04000000
0e00001a
1b000012
11000004
20800000
40400000
c0600020
80200018
40400020
2080003b
3180001c
11000034
0e00001c
04000000
00000030
00000018
ENDCHAR
STARTCHAR ch-99
ENCODING 99
SWIDTH 888 0
DWIDTH 16 0
BBX 15 18 0 -3
BITMAP
00000010
00000008
03800000
07c0001a
0fe00012
0fe00004
07c00000
07c00000
3bb80020
7ffc0018
fffe0020
fffe003b
7d7c001c
39380034
0100001c
03800000
01000030
00000018
ENDCHAR
STARTCHAR ch-100
ENCODING 100
SWIDTH 777 0
DWIDTH 14 0
BBX 13 18 0 -3
BITMAP
00000010
00000008
02000000
0700001a
05000012
08800004
10c00000
30600000
20200020
40100018
c0180020
8708003b
8f88001c
ca980034
7270001c
07000000
02000030
00000018
ENDCHAR
STARTCHAR ch-101
ENCODING 101
SWIDTH 777 0
DWIDTH 14 0
BBX 13 18 0 -3
BITMAP
00000010
00000008
00000000
3060001a
78f00012
fdf80004
fff80000
fff80000
fff00020
7ff00018
7fe00020
3fe0003b
1fc0001c
0f800034
0f00001c
07000000
02000030
00000018
ENDCHAR
STARTCHAR ch-102
ENCODING 102
SWIDTH 666 0
DWIDTH 12 0
BBX 11 18 0 -3
BITMAP
00000010
00000008
04000000
0e00001a
1f000012
1f000004
3f800000
7fc00000
ffe00020
ffe00018
7fc00020
3f80003b
3f80001c
1f000034
0e00001c
04000000
00000030
00000018
ENDCHAR
STARTCHAR ch-103
ENCODING 103
SWIDTH 888 0
DWIDTH 16 0
BBX 15 18 0 -3
BITMAP
00000010
03800008
06c00000
0c20001a
08200012
04400004
06c00000
7bbc0000
46c40020
80060018
87c60020
4544003b
793c001c
01000034
0380001c
00000000
00000030
00000018
ENDCHAR
STARTCHAR ch-105
ENCODING 105
SWIDTH 500 0
DWIDTH 9 0
BBX 8 18 0 -3
BITMAP
00000010
08000008
08000000
0800001a
08000012
08000004
08000000
08000000
08000020
08000018
08000020
0800003b
1800001c
78000034
f800001c
f0000000
e0000030
00000018
ENDCHAR
STARTCHAR ch-106
ENCODING 106
SWIDTH 500 0
DWIDTH 9 0
BBX 8 18 0 -3
BITMAP
00000010
08000008
0e000010
0f00002c
09000000
09000001
0800001c
08000010
08000020
08000018
08000020
0800003b
1800001c
78000034
f8000000
f0000000
e0000000
0000003c
ENDCHAR
STARTCHAR ch-109
ENCODING 109
SWIDTH 444 0
DWIDTH 8 0
BBX 7 18 0 -3
BITMAP
00000010
80000008
80000010
8000002c
80000000
80000001
80000004
b8000010
fc000020
cc000018
84000020
8400003b
8400001c
8c000034
88000000
90000000
a0000000
c000003c
ENDCHAR
STARTCHAR ch-110
ENCODING 110
SWIDTH 555 0
DWIDTH 10 0
BBX 9 18 0 -3
BITMAP
00000010
20000008
20000000
2600001a
3e000012
3e000004
22000000
22000000
22000020
22000018
22000020
3e00003b
3e00001c
32000034
0200001c
02000000
00000030
00000018
ENDCHAR
STARTCHAR ch-111
ENCODING 111
SWIDTH 555 0
DWIDTH 10 0
BBX 9 18 0 -3
BITMAP
00000010
22000008
22000010
2780002c
7f800000
fe000001
e2000014
22000010
22000020
22000018
23800020
3f80003b
ff00001c
fa000034
e2000000
22000000
00000000
0000003c
ENDCHAR
ENDFONT
